<svg width="960" height="640" viewBox="0 0 960 640" fill="none" xmlns="http://www.w3.org/2000/svg">
  <defs>
    <linearGradient id="bg1" x1="0" y1="0" x2="960" y2="640" gradientUnits="userSpaceOnUse">
      <stop stop-color="#0F172A"/>
      <stop offset="1" stop-color="#1E293B"/>
    </linearGradient>
    <radialGradient id="light1" cx="0" cy="0" r="1" gradientUnits="userSpaceOnUse" gradientTransform="translate(240 120) rotate(42) scale(420 240)">
      <stop stop-color="#22D3EE" stop-opacity="0.8"/>
      <stop offset="1" stop-color="#22D3EE" stop-opacity="0"/>
    </radialGradient>
  </defs>
  <rect width="960" height="640" rx="36" fill="url(#bg1)"/>
  <rect width="960" height="640" rx="36" fill="url(#light1)"/>
  <g opacity="0.35" stroke="#E2E8F0" stroke-width="4">
    <path d="M80 520C160 420 240 380 320 520"/>
    <path d="M260 520C340 420 420 380 500 520"/>
    <path d="M440 520C520 420 600 380 680 520"/>
    <path d="M620 520C700 420 780 380 860 520"/>
  </g>
  <circle cx="170" cy="160" r="22" fill="#F97316"/>
  <circle cx="250" cy="145" r="14" fill="#38BDF8"/>
  <rect x="120" y="430" width="720" height="120" rx="26" fill="#020617" fill-opacity="0.55"/>
  <text x="142" y="500" fill="#E2E8F0" font-family="system-ui" font-size="42" font-weight="700">Band Session 01</text>
</svg>
