<svg width="900" height="540" viewBox="0 0 900 540" fill="none" xmlns="http://www.w3.org/2000/svg">
  <rect width="900" height="540" rx="28" fill="#0B1120"/>
  <g opacity="0.34">
    <rect x="120" y="120" width="24" height="240" rx="8" fill="#E2E8F0"/>
    <rect x="156" y="180" width="24" height="180" rx="8" fill="#E2E8F0"/>
    <rect x="192" y="150" width="24" height="210" rx="8" fill="#E2E8F0"/>
    <rect x="228" y="98" width="24" height="262" rx="8" fill="#E2E8F0"/>
    <rect x="264" y="132" width="24" height="228" rx="8" fill="#E2E8F0"/>
    <rect x="300" y="166" width="24" height="194" rx="8" fill="#E2E8F0"/>
    <rect x="336" y="112" width="24" height="248" rx="8" fill="#E2E8F0"/>
    <rect x="372" y="190" width="24" height="170" rx="8" fill="#E2E8F0"/>
    <rect x="408" y="136" width="24" height="224" rx="8" fill="#E2E8F0"/>
    <rect x="444" y="172" width="24" height="188" rx="8" fill="#E2E8F0"/>
    <rect x="480" y="120" width="24" height="240" rx="8" fill="#E2E8F0"/>
    <rect x="516" y="182" width="24" height="178" rx="8" fill="#E2E8F0"/>
    <rect x="552" y="150" width="24" height="210" rx="8" fill="#E2E8F0"/>
    <rect x="588" y="105" width="24" height="255" rx="8" fill="#E2E8F0"/>
    <rect x="624" y="132" width="24" height="228" rx="8" fill="#E2E8F0"/>
    <rect x="660" y="168" width="24" height="192" rx="8" fill="#E2E8F0"/>
    <rect x="696" y="112" width="24" height="248" rx="8" fill="#E2E8F0"/>
    <rect x="732" y="186" width="24" height="174" rx="8" fill="#E2E8F0"/>
  </g>
</svg>
