<svg width="840" height="520" viewBox="0 0 840 520" fill="none" xmlns="http://www.w3.org/2000/svg">
  <rect width="840" height="520" rx="30" fill="#020617"/>
  <path d="M0 302C65 292 65 228 130 218C195 208 195 298 260 288C325 278 325 238 390 228C455 218 455 302 520 292C585 282 585 232 650 222C715 212 715 308 780 298C800 295 820 292 840 289" stroke="#22D3EE" stroke-width="6" stroke-linecap="round"/>
  <path d="M0 338C65 328 65 264 130 254C195 244 195 334 260 324C325 314 325 274 390 264C455 254 455 338 520 328C585 318 585 268 650 258C715 248 715 344 780 334C800 331 820 328 840 325" stroke="#A78BFA" stroke-opacity="0.85" stroke-width="6" stroke-linecap="round"/>
  <path d="M0 266C65 256 65 192 130 182C195 172 195 262 260 252C325 242 325 202 390 192C455 182 455 266 520 256C585 246 585 196 650 186C715 176 715 272 780 262C800 259 820 256 840 253" stroke="#34D399" stroke-opacity="0.82" stroke-width="6" stroke-linecap="round"/>
</svg>
